<svg width="32" height="31" viewBox="0 0 32 31" fill="none" xmlns="http://www.w3.org/2000/svg">
<g filter="url(#filter0_d_1_1321)">
<path d="M18.431 1.0389C18.716 0.765352 19.1785 0.765298 19.4635 1.0389L21.639 3.1286C21.924 3.40231 21.9239 3.84652 21.639 4.12034C21.024 4.71109 21.0242 5.67264 21.639 6.26349C22.2541 6.85431 23.2551 6.85429 23.8702 6.26349C24.1552 5.98995 24.6177 5.98992 24.9027 6.26349L27.0783 8.35319C27.3632 8.6269 27.3631 9.07111 27.0783 9.34493L13.7517 22.1456C13.4666 22.4192 13.0042 22.4194 12.7192 22.1456L10.5436 20.0559C10.2588 19.7821 10.2588 19.3379 10.5436 19.0642C11.1587 18.4733 11.1587 17.5118 10.5436 16.921C9.9285 16.3304 8.92741 16.3303 8.31242 16.921C8.02739 17.1946 7.56494 17.1948 7.27993 16.921L5.10438 14.8313C4.81953 14.5576 4.81956 14.1133 5.10438 13.8396L18.431 1.0389ZM7.86097 15.4956C9.02836 14.8196 10.5695 14.9626 11.5761 15.9293C12.5827 16.8961 12.7313 18.3764 12.0276 19.4978L13.2361 20.6587L16.1477 17.862L15.0321 16.7905C14.7471 16.5168 14.7467 16.0732 15.0314 15.7994C15.3164 15.5256 15.7788 15.5256 16.0639 15.7994L17.1794 16.871L25.5302 8.84973L24.3217 7.68887C23.1542 8.36484 21.6131 8.22206 20.6065 7.25523C19.6001 6.28834 19.4513 4.80806 20.1551 3.68671L18.9472 2.52652L10.5964 10.5477L11.712 11.6193C11.9971 11.8931 11.9971 12.3373 11.712 12.6111C11.427 12.8845 10.9652 12.8841 10.6802 12.6104L9.56465 11.5388L6.65311 14.3354L7.86097 15.4956Z" fill="#181725" stroke="#181725" stroke-width="0.3"/>
<path d="M12.3114 13.1864C12.5964 12.9127 13.059 12.9127 13.3439 13.1864L14.4313 14.2309C14.7163 14.5046 14.7163 14.9489 14.4313 15.2226C14.1464 15.4963 13.6838 15.4964 13.3988 15.2226L12.3114 14.1781C12.0265 13.9044 12.0265 13.4601 12.3114 13.1864Z" fill="#181725" stroke="#181725" stroke-width="0.3"/>
</g>
<defs>
<filter id="filter0_d_1_1321" x="0.738037" y="0.687012" width="30.707" height="29.8109" filterUnits="userSpaceOnUse" color-interpolation-filters="sRGB">
<feFlood flood-opacity="0" result="BackgroundImageFix"/>
<feColorMatrix in="SourceAlpha" type="matrix" values="0 0 0 0 0 0 0 0 0 0 0 0 0 0 0 0 0 0 127 0" result="hardAlpha"/>
<feOffset dy="4"/>
<feGaussianBlur stdDeviation="2"/>
<feComposite in2="hardAlpha" operator="out"/>
<feColorMatrix type="matrix" values="0 0 0 0 0 0 0 0 0 0 0 0 0 0 0 0 0 0 0.25 0"/>
<feBlend mode="normal" in2="BackgroundImageFix" result="effect1_dropShadow_1_1321"/>
<feBlend mode="normal" in="SourceGraphic" in2="effect1_dropShadow_1_1321" result="shape"/>
</filter>
</defs>
</svg>
